<mxfile host="65bd71144e">
    <diagram id="GHYffKBbWyiCZsi_0a14" name="Page-1">
        <mxGraphModel dx="669" dy="471" grid="1" gridSize="10" guides="1" tooltips="1" connect="1" arrows="1" fold="1" page="1" pageScale="1" pageWidth="850" pageHeight="1100" math="0" shadow="0">
            <root>
                <mxCell id="0"/>
                <mxCell id="1" parent="0"/>
                <mxCell id="74" value="&lt;font style=&quot;font-size: 30px;&quot; color=&quot;#ff00ff&quot;&gt;&amp;lt;SIGNUP_PAGE /&amp;gt;&lt;/font&gt;" style="whiteSpace=wrap;html=1;aspect=fixed;strokeColor=#FF00FF;" parent="1" vertex="1">
                    <mxGeometry x="120" y="140" width="460" height="460" as="geometry"/>
                </mxCell>
                <mxCell id="75" value="EMAIL" style="rounded=0;whiteSpace=wrap;html=1;" parent="1" vertex="1">
                    <mxGeometry x="230" y="250" width="240" height="60" as="geometry"/>
                </mxCell>
                <mxCell id="76" value="PASSWORD" style="rounded=0;whiteSpace=wrap;html=1;fillColor=none;" parent="1" vertex="1">
                    <mxGeometry x="230" y="340" width="240" height="60" as="geometry"/>
                </mxCell>
                <mxCell id="77" value="LOGIN" style="rounded=0;whiteSpace=wrap;html=1;" parent="1" vertex="1">
                    <mxGeometry x="230" y="460" width="120" height="60" as="geometry"/>
                </mxCell>
                <mxCell id="78" value="SIGNUP" style="rounded=0;whiteSpace=wrap;html=1;" parent="1" vertex="1">
                    <mxGeometry x="350" y="460" width="120" height="60" as="geometry"/>
                </mxCell>
                <mxCell id="79" value="SPACEBOOK" style="rounded=0;whiteSpace=wrap;html=1;strokeColor=none;" parent="1" vertex="1">
                    <mxGeometry x="300" y="180" width="100" height="40" as="geometry"/>
                </mxCell>
            </root>
        </mxGraphModel>
    </diagram>
</mxfile>